<svg width="40" height="40" viewBox="0 0 40 40" fill="none" xmlns="http://www.w3.org/2000/svg">
<g clip-path="url(#clip0)">
<path d="M38.3382 17.4253C38.1347 17.3058 37.8832 17.3027 37.6768 17.4173L35.8422 18.4367L35.3335 0.648C35.3234 0.287083 35.0278 -0.000166594 34.6668 7.249e-08H30.0002C29.6392 -0.000166594 29.3436 0.287083 29.3335 0.648L28.7122 22.4L26.6668 23.5333V18C26.6667 17.6318 26.368 17.3335 25.9998 17.3337C25.8868 17.3337 25.7757 17.3625 25.6768 17.4173L14.6668 23.5333V18C14.6667 17.6318 14.368 17.3335 13.9998 17.3337C13.8868 17.3337 13.7757 17.3625 13.6768 17.4173L1.67683 24.084C1.46508 24.2014 1.33358 24.4245 1.3335 24.6667V39.3333C1.3335 39.7015 1.632 40 2.00016 40H38.0002C38.3683 40 38.6668 39.7015 38.6668 39.3333V18C38.6668 17.7638 38.5418 17.5451 38.3382 17.4253ZM30.6482 1.33333H34.0188L34.0575 2.66667H30.6102L30.6482 1.33333ZM30.5715 4H34.0955L34.5288 19.166L30.0668 21.644L30.5715 4ZM19.3335 38.6667H15.3335V35.3333H19.3335V38.6667ZM24.6668 38.6667H20.6668V35.3333H24.6668V38.6667ZM37.3335 38.6667H26.0002V34.6667C26.0002 34.2985 25.7017 34 25.3335 34H14.6668C14.2987 34 14.0002 34.2985 14.0002 34.6667V38.6667H2.66683V25.0593L13.3335 19.1333V24.6667C13.3337 25.0348 13.6323 25.3332 14.0005 25.333C14.1135 25.3329 14.2247 25.3042 14.3235 25.2493L25.3335 19.1333V24.6667C25.3337 25.0348 25.6323 25.3332 26.0005 25.333C26.1135 25.3329 26.2247 25.3042 26.3235 25.2493L32.6108 21.7567L35.5335 20.1333L37.3335 19.1333V38.6667Z" fill="black"/>
</g>
<defs>
<clipPath id="clip0">
<rect width="40" height="40" fill="white"/>
</clipPath>
</defs>
</svg>
