<svg width="40" height="40" viewBox="0 0 40 40" fill="none" xmlns="http://www.w3.org/2000/svg">
<g clip-path="url(#clip0)">
<path d="M38.0365 21.9051C38.0364 21.9047 38.0364 21.9044 38.0363 21.9041H38.0369L37.3446 19.3268C36.4831 16.1273 33.1941 14.2292 29.9928 15.084L15.2812 19.0273V11.0032C15.2812 10.704 15.4806 10.4413 15.7688 10.3609L26.2029 7.44528C28.68 6.74984 30.1299 4.18368 29.4472 1.70299L29.1104 0.488364C29.0159 0.148689 28.6734 -0.0587511 28.3286 0.0147868L6.96896 4.57447C4.81977 5.04254 3.28406 6.9406 3.27506 9.14015V36.1207C2.4784 36.4024 1.94454 37.1541 1.94104 37.999V39.333C1.94104 39.7014 2.23969 40 2.60805 40H15.9482C16.3166 40 16.6153 39.7014 16.6153 39.333V37.999C16.6118 37.1541 16.0779 36.4024 15.2812 36.1207V28.6922L27.8997 25.3118L28.0732 25.9581C28.3561 27.0238 29.4493 27.6583 30.5149 27.3755C30.5181 27.3746 30.5212 27.3738 30.5244 27.3729L35.6784 25.9928C36.7458 25.7064 37.3789 24.6089 37.0925 23.5416L36.919 22.8946L37.5647 22.7218C37.9206 22.6266 38.1318 22.2609 38.0365 21.9051ZM4.60908 17.3217H13.9472V35.998H4.60908V17.3217ZM15.2812 38.666H3.27506V37.999C3.27506 37.6306 3.57371 37.332 3.94207 37.332H14.6142C14.9826 37.332 15.2812 37.6306 15.2812 37.999V38.666ZM13.9472 11.0031V15.9877H4.60908V9.14015C4.61583 7.56901 5.71265 6.21323 7.24777 5.87847L27.9918 1.45019L28.1605 2.05917C28.6474 3.83108 27.6122 5.66361 25.8433 6.16128L15.41 9.07679C14.5465 9.31958 13.9492 10.1062 13.9472 11.0031ZM35.3329 24.7035V24.7055L30.1789 26.0869C29.8232 26.1827 29.4572 25.972 29.3614 25.6162C29.3613 25.6159 29.3612 25.6155 29.3612 25.6153L29.1891 24.971L35.6324 23.2447L35.8051 23.8891C35.8988 24.2443 35.6877 24.6084 35.3329 24.7035ZM15.2812 27.3122V20.4086L30.3377 16.3719C32.8274 15.7088 35.3845 17.1846 36.0559 19.6722L36.5755 21.6066L15.2812 27.3122Z" fill="black"/>
<path d="M34.5065 28.949L33.9575 28.1539L33.4086 28.949C33.055 29.4613 29.9554 34.0056 29.9554 35.998C29.9554 38.2083 31.7472 40 33.9575 40C36.1678 40 37.9596 38.2083 37.9596 35.998C37.9596 34.0056 34.86 29.4613 34.5065 28.949ZM33.9575 38.666C32.484 38.666 31.2895 37.4715 31.2895 35.998C31.2895 34.9728 32.7569 32.3774 33.9575 30.5285C35.1581 32.3781 36.6255 34.9734 36.6255 35.998C36.6255 37.4715 35.431 38.666 33.9575 38.666Z" fill="black"/>
</g>
<defs>
<clipPath id="clip0">
<rect width="40" height="40" fill="white"/>
</clipPath>
</defs>
</svg>
