<svg width="261" height="385" viewBox="0 0 261 385" fill="none" xmlns="http://www.w3.org/2000/svg">
<path d="M184.093 384.798L-0.000584517 41.1429L76.8027 0L260.923 343.705L184.119 384.848L184.093 384.798ZM6.87084 43.3895L186.003 377.784L254.052 341.331L74.9196 6.93632L6.87084 43.3895Z" fill="black"/>
<path d="M66.4792 33.8933L69.3976 39.3411L55.487 46.7928L63.393 61.5513L77.3036 54.0996L80.2219 59.5474L46.7077 77.5006L43.7894 72.0528L57.9148 64.486L50.0088 49.7275L35.8834 57.2943L32.9651 51.8466L66.4792 33.8933Z" fill="black"/>
<path d="M67.2603 75.6044C76.713 70.5407 88.136 73.026 93.2298 82.5348C98.3236 92.0437 94.0644 102.802 84.558 107.895C75.159 112.93 63.6822 110.473 58.5884 100.964C53.4946 91.4556 57.7538 80.6969 67.2603 75.6044ZM81.507 102.199C88.0057 98.7182 91.0957 91.4541 87.8059 85.3129C84.5162 79.1718 76.9174 77.761 70.3112 81.2998C63.8125 84.7812 60.7226 92.0453 64.0124 98.1864C67.3558 104.299 74.9546 105.71 81.507 102.199Z" fill="black"/>
<path d="M102.958 101.99L106.089 107.834L85.2285 128.506L114.208 122.733L116.676 127.339L95.814 148.267L124.58 142.354L127.631 148.049L88.1453 155.37L85.6515 150.715L105.654 130.248L77.5332 135.56L75.0394 130.905L102.958 101.99Z" fill="black"/>
<path d="M137.278 179.088L132.025 169.282L137.503 166.347L150.927 191.407L145.449 194.342L140.196 184.536L112.16 199.554L109.242 194.106L137.278 179.088Z" fill="black"/>
<path d="M135.868 203.676C145.321 198.613 156.744 201.098 161.837 210.607C166.931 220.116 162.672 230.874 153.166 235.967C143.767 241.002 132.29 238.545 127.196 229.036C122.129 219.577 126.362 208.769 135.868 203.676ZM150.115 230.272C156.613 226.79 159.703 219.526 156.414 213.385C153.124 207.244 145.525 205.833 138.919 209.372C132.42 212.853 129.33 220.117 132.62 226.258C135.963 232.371 143.562 233.782 150.115 230.272Z" fill="black"/>
<path d="M181.488 248.587L193.745 271.467L188.482 274.287L179.116 256.804L170.416 261.465L178.72 276.967L173.456 279.786L165.152 264.285L156.183 269.09L165.654 286.77L160.391 289.59L148.028 266.511L181.488 248.587Z" fill="black"/>
<path d="M203.991 289.946L206.697 294.998L180.238 326.636L177.16 320.891L183.599 313.426L175.772 298.817L165.964 299.991L162.993 294.445L203.991 289.946ZM187.693 308.683L198.202 296.171L181.989 298.035L187.693 308.683Z" fill="black"/>
<path d="M213.126 320.678L207.9 310.922L213.378 307.987L226.802 333.047L221.324 335.982L216.071 326.176L188.035 341.194L185.117 335.747L213.153 320.728L213.126 320.678Z" fill="black"/>
</svg>
