<svg width="30" height="30" viewBox="0 0 30 30" fill="none" xmlns="http://www.w3.org/2000/svg">
<g clip-path="url(#clip0)">
<path d="M6.2899 22.4995H14.9999C15.8283 22.4995 16.4999 21.8279 16.4999 20.9995C16.4958 20.1728 15.8266 19.5036 14.9999 19.4995H6.1699C6.02246 19.5043 5.88484 19.4258 5.8139 19.2965C5.73269 19.1679 5.73057 19.0047 5.8084 18.874L7.1039 16.624L7.4604 16.8295C7.62442 16.924 7.82773 16.9178 7.98565 16.8134C8.14357 16.709 8.22902 16.5244 8.2064 16.3365L7.8264 13.1615C7.80754 13.0053 7.7163 12.8671 7.58009 12.7885C7.44388 12.7098 7.27859 12.6998 7.1339 12.7615L4.19389 14.0165C4.01974 14.0907 3.9024 14.2568 3.89076 14.4458C3.87911 14.6347 3.97516 14.814 4.13889 14.909L4.50839 15.1235L3.21139 17.375C2.58366 18.4486 2.59518 19.7799 3.24139 20.8425C3.90004 21.8876 5.05464 22.5152 6.2899 22.4995Z" fill="#2A2A2A"/>
<path d="M19.775 11.2145C19.644 10.9881 19.575 10.7311 19.575 10.4695C19.5757 9.79043 20.0315 9.19612 20.6871 9.01937C21.3428 8.84261 22.0355 9.1273 22.3775 9.714L26.7885 17.3765C27.4162 18.4494 27.4052 19.7801 26.76 20.8425C26.101 21.8881 24.9458 22.5158 23.71 22.4995H21.005V22.9995C21.0049 23.1916 20.8948 23.3667 20.7217 23.4499C20.5486 23.5332 20.3431 23.5099 20.193 23.39L17.688 21.39C17.5693 21.2951 17.5002 21.1514 17.5002 20.9995C17.5002 20.8476 17.5693 20.7039 17.688 20.609L20.193 18.609C20.3431 18.4892 20.5486 18.4659 20.7217 18.5491C20.8948 18.6324 21.0049 18.8074 21.005 18.9995V19.501H23.83C23.9759 19.5062 24.1124 19.4289 24.183 19.301C24.2668 19.1706 24.2695 19.004 24.19 18.871L19.775 11.2145Z" fill="#2A2A2A"/>
<path d="M8.7999 12.165C8.53823 12.1644 8.28126 12.0954 8.0544 11.965C7.33783 11.5505 7.09017 10.6353 7.4999 9.91599L12.0419 2.04099C12.6509 0.982551 13.779 0.330139 15.0002 0.330139C16.2213 0.330139 17.3494 0.982551 17.9584 2.04099L19.2489 4.28449L19.6054 4.07899C19.7694 3.9845 19.9727 3.99074 20.1307 4.0951C20.2886 4.19946 20.374 4.38405 20.3514 4.57199L19.9714 7.74699C19.9525 7.90315 19.8613 8.04134 19.7251 8.12001C19.5889 8.19869 19.4236 8.20868 19.2789 8.14699L16.3384 6.89199C16.1642 6.81781 16.0469 6.65166 16.0353 6.46272C16.0236 6.27379 16.1197 6.09448 16.2834 5.99949L16.6529 5.78349L15.3614 3.53999C15.2873 3.41009 15.1492 3.32991 14.9997 3.32991C14.8501 3.32991 14.712 3.41009 14.6379 3.53999L10.1034 11.415C9.83095 11.8767 9.33603 12.1615 8.7999 12.165Z" fill="#2A2A2A"/>
<path d="M16 24.4994V29.4994C16 29.7756 16.2239 29.9994 16.5 29.9994C16.7761 29.9994 17 29.7756 17 29.4994V27.4994H18.25C19.2165 27.4994 20 26.7159 20 25.7494C20 24.783 19.2165 23.9995 18.25 23.9995H16.5C16.2239 23.9995 16 24.2233 16 24.4994ZM19 25.7494C19 26.1637 18.6642 26.4994 18.25 26.4994H17V24.9994H18.25C18.6642 24.9994 19 25.3352 19 25.7494Z" fill="#2A2A2A"/>
<path d="M14.7498 15.9995C14.132 16.0033 13.6077 15.547 13.5263 14.9345C13.4925 14.6604 13.2429 14.4656 12.9688 14.4995C12.6948 14.5333 12.5 14.7829 12.5338 15.057C12.6542 15.9473 13.2946 16.6797 14.1609 16.9177C15.0273 17.1557 15.952 16.8533 16.5103 16.1495C16.941 15.6083 17.1002 14.8998 16.9423 14.2265C16.7742 13.5073 16.2621 12.9175 15.5736 12.6502C14.8852 12.3828 14.1093 12.4723 13.4998 12.8895V11.4995H16.4998C16.776 11.4995 16.9998 11.2756 16.9998 10.9995C16.9998 10.7233 16.776 10.4995 16.4998 10.4995H13.4998C12.9476 10.4995 12.4998 10.9472 12.4998 11.4995V12.8895C12.4952 13.2519 12.6933 13.5867 13.0133 13.757C13.347 13.9324 13.7499 13.9113 14.0633 13.702C14.3539 13.5125 14.7096 13.451 15.0468 13.532C15.6683 13.6763 16.0813 14.2655 16.005 14.8989C15.9288 15.5323 15.3878 16.0067 14.7498 15.9995Z" fill="#2A2A2A"/>
<path d="M11.5 23.9995C11.2239 23.9995 11 24.2233 11 24.4994V29.4994C11 29.7756 11.2239 29.9994 11.5 29.9994C11.7761 29.9994 12 29.7756 12 29.4994V27.4994H13.25C14.2165 27.4994 15 26.7159 15 25.7494C15 24.783 14.2165 23.9995 13.25 23.9995H11.5ZM14 25.7494C14 26.1637 13.6642 26.4994 13.25 26.4994H12V24.9994H13.25C13.6642 24.9994 14 25.3352 14 25.7494Z" fill="#2A2A2A"/>
</g>
<defs>
<clipPath id="clip0">
<rect width="30" height="30" fill="white" transform="translate(0 -0.000488281)"/>
</clipPath>
</defs>
</svg>
