<svg width="30" height="30" viewBox="0 0 30 30" fill="none" xmlns="http://www.w3.org/2000/svg">
<g clip-path="url(#clip0)">
<path d="M14.9999 22.4995H6.2899C5.05464 22.5152 3.90004 21.8876 3.24139 20.8425C2.59518 19.7799 2.58366 18.4486 3.21139 17.375L4.50839 15.1235L4.13889 14.909C3.97516 14.814 3.87911 14.6347 3.89076 14.4458C3.9024 14.2568 4.01974 14.0907 4.19389 14.0165L7.1339 12.7615C7.27859 12.6998 7.44388 12.7098 7.58009 12.7885C7.7163 12.8671 7.80754 13.0053 7.8264 13.1615L8.2064 16.3365C8.22902 16.5244 8.14357 16.709 7.98565 16.8134C7.82773 16.9178 7.62442 16.924 7.4604 16.8295L7.1039 16.624L5.8084 18.874C5.73057 19.0047 5.73269 19.1679 5.8139 19.2965C5.88484 19.4258 6.02246 19.5043 6.1699 19.4995H14.9999C15.8266 19.5036 16.4958 20.1728 16.4999 20.9995C16.4999 21.8279 15.8283 22.4995 14.9999 22.4995Z" fill="#2A2A2A"/>
<path d="M19.775 11.2145C19.644 10.9881 19.575 10.7311 19.575 10.4695C19.5757 9.79043 20.0315 9.19612 20.6871 9.01937C21.3428 8.84261 22.0356 9.1273 22.3775 9.714L26.789 17.3765C27.4165 18.4495 27.4054 19.7802 26.76 20.8425C26.1011 21.8881 24.9458 22.5158 23.71 22.4995H21.005V22.9995C21.0049 23.1916 20.8948 23.3667 20.7217 23.4499C20.5486 23.5332 20.3431 23.5099 20.193 23.39L17.688 21.39C17.5693 21.2951 17.5002 21.1514 17.5002 20.9995C17.5002 20.8476 17.5693 20.7039 17.688 20.609L20.193 18.609C20.3431 18.4892 20.5486 18.4659 20.7217 18.5491C20.8948 18.6324 21.0049 18.8074 21.005 18.9995V19.501H23.83C23.976 19.5058 24.1124 19.4286 24.1835 19.301C24.2669 19.1705 24.2694 19.004 24.19 18.871L19.775 11.2145Z" fill="#2A2A2A"/>
<path d="M8.0544 11.965C8.28126 12.0954 8.53823 12.1644 8.7999 12.165C9.33603 12.1615 9.83095 11.8767 10.1034 11.415L14.6379 3.53999C14.712 3.41009 14.8501 3.32991 14.9997 3.32991C15.1492 3.32991 15.2873 3.41009 15.3614 3.53999L16.6529 5.78349L16.2834 5.99949C16.1197 6.09448 16.0236 6.27379 16.0353 6.46272C16.0469 6.65166 16.1642 6.81781 16.3384 6.89199L19.2789 8.14699C19.4236 8.20868 19.5889 8.19869 19.7251 8.12001C19.8613 8.04134 19.9525 7.90315 19.9714 7.74699L20.3514 4.57199C20.374 4.38405 20.2886 4.19946 20.1307 4.0951C19.9727 3.99074 19.7694 3.9845 19.6054 4.07899L19.2489 4.28449L17.9584 2.04099C17.3494 0.982551 16.2213 0.330139 15.0002 0.330139C13.779 0.330139 12.6509 0.982551 12.0419 2.04099L7.4999 9.91599C7.09017 10.6353 7.33783 11.5505 8.0544 11.965Z" fill="#2A2A2A"/>
<path d="M15.5 24.4994V29.4994C15.5 29.7756 15.7239 29.9994 16 29.9994C16.2761 29.9994 16.5 29.7756 16.5 29.4994V27.4994H17.75C18.7165 27.4994 19.5 26.7159 19.5 25.7494C19.5 24.783 18.7165 23.9995 17.75 23.9995H16C15.7239 23.9995 15.5 24.2233 15.5 24.4994ZM18.5 25.7494C18.5 26.1637 18.1642 26.4994 17.75 26.4994H16.5V24.9994H17.75C18.1642 24.9994 18.5 25.3352 18.5 25.7494Z" fill="#2A2A2A"/>
<path d="M6 23.9995C5.72386 23.9995 5.5 24.2233 5.5 24.4994V29.4994C5.5 29.7756 5.72386 29.9994 6 29.9994H9.00001C9.27615 29.9994 9.50001 29.7756 9.50001 29.4994C9.50001 29.2233 9.27615 28.9994 9.00001 28.9994H6.5V24.4994C6.5 24.2233 6.27614 23.9995 6 23.9995Z" fill="#2A2A2A"/>
<path d="M11 23.9995C10.7239 23.9995 10.5 24.2233 10.5 24.4994V29.4994C10.5 29.7756 10.7239 29.9994 11 29.9994H12.5C13.6046 29.9994 14.5 29.104 14.5 27.9994V25.9994C14.5 24.8949 13.6046 23.9995 12.5 23.9995H11ZM13.5 25.9994V27.9994C13.5 28.5517 13.0523 28.9994 12.5 28.9994H11.5V24.9994H12.5C13.0523 24.9994 13.5 25.4472 13.5 25.9994Z" fill="#2A2A2A"/>
<path d="M24 24.9994C24.2761 24.9994 24.5 24.7756 24.5 24.4994C24.5 24.2233 24.2761 23.9995 24 23.9995H21C20.7239 23.9995 20.5 24.2233 20.5 24.4994V29.4994C20.5 29.7756 20.7239 29.9994 21 29.9994H24C24.2761 29.9994 24.5 29.7756 24.5 29.4994C24.5 29.2233 24.2761 28.9994 24 28.9994H21.5V27.4994H24C24.2761 27.4994 24.5 27.2756 24.5 26.9994C24.5 26.7233 24.2761 26.4994 24 26.4994H21.5V24.9994H24Z" fill="#2A2A2A"/>
<path d="M15 16.9994C15.2762 16.9994 15.5 16.7756 15.5 16.4994V15.4994H16.5C16.7762 15.4994 17 15.2756 17 14.9994C17 14.7233 16.7762 14.4994 16.5 14.4994H15.5V10.9994C15.5 10.7764 15.3523 10.5803 15.1379 10.5188C14.9234 10.4573 14.6942 10.5453 14.576 10.7344L12.076 14.7344C11.9797 14.8886 11.9746 15.0828 12.0627 15.2418C12.1508 15.4008 12.3182 15.4994 12.5 15.4994H14.5V16.4994C14.5 16.7756 14.7239 16.9994 15 16.9994ZM13.4 14.4994L14.5 12.7429V14.4994H13.4Z" fill="#2A2A2A"/>
</g>
<defs>
<clipPath id="clip0">
<rect width="30" height="30" fill="white" transform="translate(0 -0.000488281)"/>
</clipPath>
</defs>
</svg>
