<svg width="30" height="30" viewBox="0 0 30 30" fill="none" xmlns="http://www.w3.org/2000/svg">
<g clip-path="url(#clip0)">
<path d="M14.9999 22.4995H6.2899C5.05464 22.5152 3.90004 21.8876 3.24139 20.8425C2.59518 19.7799 2.58366 18.4486 3.21139 17.375L4.50839 15.1235L4.13889 14.909C3.97516 14.814 3.87911 14.6347 3.89076 14.4458C3.9024 14.2568 4.01974 14.0907 4.19389 14.0165L7.1339 12.7615C7.27859 12.6998 7.44388 12.7098 7.58009 12.7885C7.7163 12.8671 7.80754 13.0053 7.8264 13.1615L8.2064 16.3365C8.22902 16.5244 8.14357 16.709 7.98565 16.8134C7.82773 16.9178 7.62442 16.924 7.4604 16.8295L7.1039 16.624L5.8084 18.874C5.73057 19.0047 5.73269 19.1679 5.8139 19.2965C5.88484 19.4258 6.02246 19.5043 6.1699 19.4995H14.9999C15.8266 19.5036 16.4958 20.1728 16.4999 20.9995C16.4999 21.8279 15.8283 22.4995 14.9999 22.4995Z" fill="#2A2A2A"/>
<path d="M19.575 10.4695C19.575 10.7311 19.644 10.9881 19.775 11.2145L24.19 18.871C24.2694 19.004 24.2669 19.1705 24.1835 19.301C24.1124 19.4286 23.976 19.5058 23.83 19.501H21.005V18.9995C21.0049 18.8074 20.8948 18.6324 20.7217 18.5491C20.5486 18.4659 20.3431 18.4892 20.193 18.609L17.688 20.609C17.5693 20.7039 17.5002 20.8476 17.5002 20.9995C17.5002 21.1514 17.5693 21.2951 17.688 21.39L20.193 23.39C20.3431 23.5099 20.5486 23.5332 20.7217 23.4499C20.8948 23.3667 21.0049 23.1916 21.005 22.9995V22.4995H23.71C24.9458 22.5158 26.1011 21.8881 26.76 20.8425C27.4054 19.7802 27.4165 18.4495 26.789 17.3765L22.3775 9.714C22.0356 9.1273 21.3428 8.84261 20.6871 9.01937C20.0315 9.19612 19.5757 9.79043 19.575 10.4695Z" fill="#2A2A2A"/>
<path d="M8.7999 12.165C8.53823 12.1644 8.28126 12.0954 8.0544 11.965C7.33783 11.5505 7.09017 10.6353 7.4999 9.91599L12.0419 2.04099C12.6509 0.982551 13.779 0.330139 15.0002 0.330139C16.2213 0.330139 17.3494 0.982551 17.9584 2.04099L19.2489 4.28449L19.6054 4.07899C19.7694 3.9845 19.9727 3.99074 20.1307 4.0951C20.2886 4.19946 20.374 4.38405 20.3514 4.57199L19.9714 7.74699C19.9526 7.90315 19.8613 8.04134 19.7251 8.12001C19.5889 8.19869 19.4236 8.20868 19.2789 8.14699L16.3384 6.89199C16.1643 6.81781 16.0469 6.65166 16.0353 6.46272C16.0236 6.27379 16.1197 6.09448 16.2834 5.99949L16.6529 5.78349L15.3614 3.53999C15.2873 3.41009 15.1492 3.32991 14.9997 3.32991C14.8501 3.32991 14.712 3.41009 14.6379 3.53999L10.1034 11.415C9.83095 11.8767 9.33603 12.1615 8.7999 12.165Z" fill="#2A2A2A"/>
<path d="M7 23.9995C6.72386 23.9995 6.5 24.2233 6.5 24.4994V29.4994C6.5 29.7756 6.72386 29.9994 7 29.9994C7.27614 29.9994 7.5 29.7756 7.5 29.4994V27.4994H8.75C9.7165 27.4994 10.5 26.7159 10.5 25.7494C10.5 24.783 9.7165 23.9995 8.75 23.9995H7ZM9.5 25.7494C9.5 26.1637 9.16421 26.4994 8.75 26.4994H7.5V24.9994H8.75C9.16421 24.9994 9.5 25.3352 9.5 25.7494Z" fill="#2A2A2A"/>
<path d="M14.5 24.9994C14.7761 24.9994 15 24.7756 15 24.4994C15 24.2233 14.7761 23.9995 14.5 23.9995H11.5C11.2239 23.9995 11 24.2233 11 24.4994V29.4994C11 29.7756 11.2239 29.9994 11.5 29.9994H14.5C14.7761 29.9994 15 29.7756 15 29.4994C15 29.2233 14.7761 28.9994 14.5 28.9994H12V27.4994H14.5C14.7761 27.4994 15 27.2756 15 26.9994C15 26.7233 14.7761 26.4994 14.5 26.4994H12V24.9994H14.5Z" fill="#2A2A2A"/>
<path d="M17.5 29.9994C17.7761 29.9994 18 29.7756 18 29.4994V24.9994H19C19.2761 24.9994 19.5 24.7756 19.5 24.4994C19.5 24.2233 19.2761 23.9995 19 23.9995H16C15.7239 23.9995 15.5 24.2233 15.5 24.4994C15.5 24.7756 15.7239 24.9994 16 24.9994H17V29.4994C17 29.7756 17.2238 29.9994 17.5 29.9994Z" fill="#2A2A2A"/>
<path d="M23.5 24.9994C23.7761 24.9994 24 24.7756 24 24.4994C24 24.2233 23.7761 23.9995 23.5 23.9995H20.5C20.2239 23.9995 20 24.2233 20 24.4994V29.4994C20 29.7756 20.2239 29.9994 20.5 29.9994H23.5C23.7761 29.9994 24 29.7756 24 29.4994C24 29.2233 23.7761 28.9994 23.5 28.9994H21V27.4994H23.5C23.7761 27.4994 24 27.2756 24 26.9994C24 26.7233 23.7761 26.4994 23.5 26.4994H21V24.9994H23.5Z" fill="#2A2A2A"/>
<path d="M15 16.9995C15.2762 16.9995 15.5 16.7757 15.5 16.4995V10.9996C15.5002 10.7681 15.3416 10.5667 15.1164 10.5128C14.8913 10.4589 14.6586 10.5666 14.554 10.7731C14.3455 11.1756 13.9504 11.448 13.5 11.4996C13.2239 11.4996 13 11.7234 13 11.9996C13 12.2757 13.2239 12.4996 13.5 12.4996C13.8519 12.5001 14.1974 12.4056 14.5 12.2261V16.4995C14.5 16.7757 14.7239 16.9995 15 16.9995Z" fill="#2A2A2A"/>
</g>
<defs>
<clipPath id="clip0">
<rect width="30" height="30" fill="white" transform="translate(0 -0.000488281)"/>
</clipPath>
</defs>
</svg>
