<svg width="100" height="100" viewBox="0 0 100 100" fill="none" xmlns="http://www.w3.org/2000/svg">
<g clip-path="url(#clip0)">
<path d="M79.2126 35.6538H72.4323C71.866 35.6538 71.4069 36.1128 71.4069 36.6792C71.4069 37.2456 71.866 37.7046 72.4323 37.7046H79.2126C81.2729 37.7046 82.9491 39.3808 82.9491 41.4411V42.8165C82.9491 42.9379 82.8504 43.0366 82.729 43.0366H61.0057V42.4301C61.0057 41.0307 59.8672 39.8921 58.4677 39.8921H41.5321C40.1326 39.8921 38.994 41.0307 38.994 42.4301V43.0366H34.137C33.5707 43.0366 33.1116 43.4956 33.1116 44.062C33.1116 44.6284 33.5707 45.0874 34.137 45.0874H39.0234C39.2467 46.8578 40.7607 48.2319 42.5907 48.2319H57.409C59.2389 48.2319 60.753 46.8578 60.9762 45.0874H78.1648L74.689 64.1208C74.5873 64.678 74.9564 65.212 75.5135 65.3138C75.5759 65.3252 75.6378 65.3307 75.6989 65.3307C76.1845 65.3307 76.616 64.9842 76.7064 64.4894L78.4262 55.0721H79.9059C81.5847 55.0721 82.9506 53.7063 82.9506 52.0272V45.0762C84.0992 44.9645 85 43.9939 85 42.8165V41.4411C84.9999 38.25 82.4037 35.6538 79.2126 35.6538V35.6538ZM58.955 44.6351C58.955 45.4876 58.2614 46.1812 57.409 46.1812H42.5908C41.7384 46.1812 41.0448 45.4877 41.0448 44.6351V42.4301C41.0448 42.1613 41.2634 41.9429 41.5321 41.9429H58.4677C58.7364 41.9429 58.955 42.1615 58.955 42.4301V44.6351ZM80.8997 52.0272C80.8997 52.5754 80.4539 53.0213 79.9057 53.0213H78.8007L80.2495 45.0875H80.8996V52.0272H80.8997Z" fill="black"/>
<path d="M75.0961 67.6001C74.5392 67.4983 74.0049 67.8673 73.9031 68.4245L73.539 70.4178C73.3406 71.5052 72.3941 72.2944 71.2885 72.2944H28.7115C27.6057 72.2944 26.6592 71.5053 26.4609 70.4176L21.8351 45.0874H29.3976C29.9639 45.0874 30.423 44.6284 30.423 44.062C30.423 43.4956 29.9639 43.0366 29.3976 43.0366H17.2709C17.1495 43.0366 17.0508 42.9378 17.0508 42.8165V41.4411C17.0508 39.3808 18.727 37.7046 20.7873 37.7046H67.6157C68.182 37.7046 68.6411 37.2456 68.6411 36.6792C68.6411 36.1128 68.182 35.6538 67.6157 35.6538H20.7873C17.5962 35.6538 15 38.25 15 41.4411V42.8165C15 44.0106 15.927 44.9901 17.0986 45.0787V52.0272C17.0986 53.7062 18.4645 55.0721 20.1434 55.0721H21.5737L24.4433 70.786C24.8196 72.8484 26.6145 74.3454 28.7114 74.3454H71.2883C73.3852 74.3454 75.1802 72.8484 75.5564 70.7863L75.9205 68.7932C76.0222 68.2358 75.6532 67.7018 75.0961 67.6001V67.6001ZM20.1434 53.0212C19.5953 53.0212 19.1494 52.5752 19.1494 52.0271V45.0874H19.7504L21.1992 53.0212H20.1434Z" fill="black"/>
</g>
<defs>
<clipPath id="clip0">
<rect width="70" height="70" fill="white" transform="translate(15 19.9995)"/>
</clipPath>
</defs>
</svg>
