<svg width="100" height="100" viewBox="0 0 100 100" fill="none" xmlns="http://www.w3.org/2000/svg">
<path d="M22.7578 50.0151V48.1542V42.1319V39.1753H67.6376C68.123 39.1753 68.5165 38.7818 68.5165 38.2964C68.5165 37.811 68.123 37.4175 67.6376 37.4175H21.8789C21.3935 37.4175 21 37.811 21 38.2964V50.0151C21 53.7902 22.3631 57.4357 24.8384 60.2802C25.0121 60.4799 25.2563 60.5822 25.5018 60.5822C25.7064 60.5822 25.9119 60.5112 26.0783 60.3663C26.4445 60.0477 26.4831 59.4924 26.1643 59.1263C23.9677 56.6018 22.7578 53.366 22.7578 50.0151Z" fill="black"/>
<path d="M80.1209 37.4175H71.736C71.2506 37.4175 70.8571 37.811 70.8571 38.2964C70.8571 38.7818 71.2506 39.1753 71.736 39.1753H79.242V50.0151C79.242 50.8437 79.1687 51.6554 79.0289 52.4444C78.9046 53.0019 78.6441 54.1338 78.5964 54.2022C78.2601 55.2635 77.8 56.2701 77.2322 57.2046C76.811 57.9487 75.9607 58.9214 75.9663 58.9625C73.417 61.9812 69.6066 63.902 65.3554 63.902H36.6444C33.822 63.902 31.1054 63.0603 28.7889 61.4681C28.3889 61.1932 27.8417 61.2947 27.5667 61.6946C27.2918 62.0947 27.3933 62.6419 27.7933 62.9168C30.3078 64.6449 33.2397 65.5858 36.2929 65.6532V68.5187C36.2929 69.6562 37.2183 70.5817 38.3558 70.5817H55.3779C55.8633 70.5817 56.2568 70.1881 56.2568 69.7028C56.2568 69.2174 55.8633 68.8238 55.3779 68.8238H38.3557C38.1874 68.8238 38.0506 68.687 38.0506 68.5187V65.6597H63.949V68.5186C63.949 68.6869 63.8121 68.8237 63.6438 68.8237H59.4402C58.9548 68.8237 58.5613 69.2172 58.5613 69.7026C58.5613 70.188 58.9548 70.5815 59.4402 70.5815H63.6438C64.7814 70.5815 65.7068 69.6561 65.7068 68.5186V65.6551C74.1715 65.4676 80.9998 58.524 80.9998 50.0151V38.2964C80.9998 37.811 80.6063 37.4175 80.1209 37.4175Z" fill="black"/>
</svg>
