<svg width="100" height="100" viewBox="0 0 100 100" fill="none" xmlns="http://www.w3.org/2000/svg">
<g clip-path="url(#clip0)">
<path d="M65.2373 41.4726C65.2373 40.0212 64.0567 38.8406 62.6055 38.8406H51.5113L49.8993 38.8407H45.0517C44.6066 38.8407 44.246 39.2014 44.246 39.6465C44.246 40.0915 44.6066 40.4522 45.0517 40.4522H62.6055C63.1681 40.4522 63.626 40.9101 63.626 41.4728C63.626 42.0356 63.1681 42.4935 62.6055 42.4935H36.3945C35.8319 42.4935 35.374 42.0356 35.374 41.4728C35.374 40.9101 35.8319 40.4522 36.3945 40.4522H41.2396C41.6846 40.4522 42.0452 40.0915 42.0452 39.6465C42.0452 39.2014 41.6846 38.8407 41.2396 38.8407H36.3945C34.9433 38.8407 33.7627 40.0214 33.7627 41.4727C33.7627 42.8643 34.8483 44.0064 36.217 44.0981L38.2464 60.848C38.5332 63.2149 40.5472 64.9997 42.9313 64.9997H56.0688C58.4529 64.9997 60.4669 63.2149 60.7537 60.8479L60.8261 60.25C60.8796 59.8082 60.5649 59.4068 60.1232 59.3533C59.6821 59.2998 59.2799 59.6146 59.2265 60.0563L59.1541 60.6541C58.9652 62.2129 57.6388 63.3883 56.0687 63.3883H42.9313C41.3613 63.3883 40.0348 62.2129 39.8459 60.6541L37.8409 44.1048H61.1591L59.642 56.6267C59.5885 57.0686 59.9032 57.47 60.3449 57.5235C60.7856 57.5776 61.1881 57.2625 61.2416 56.8206L62.7831 44.0982C64.1517 44.0063 65.2373 42.8642 65.2373 41.4726Z" fill="black"/>
</g>
<defs>
<clipPath id="clip0">
<rect width="55" height="55" fill="white" transform="translate(22 9.99951)"/>
</clipPath>
</defs>
</svg>
