<svg width="100" height="100" viewBox="0 0 100 100" fill="none" xmlns="http://www.w3.org/2000/svg">
<g clip-path="url(#clip0)">
<path d="M58.2231 30.3398L58.2938 30.4105C57.7602 30.944 57.0507 31.2382 56.2969 31.2382H43.7031C42.1455 31.2382 40.8785 29.9712 40.8785 28.4136C40.8785 27.6597 41.1725 26.9503 41.7063 26.4166C41.7063 26.4166 41.7063 26.4166 41.7063 26.4166M58.2231 30.3398L41.7063 26.4166M58.2231 30.3398L58.2938 30.4105C58.8273 29.8769 59.1215 29.1674 59.1215 28.4136C59.1215 26.8559 57.8545 25.589 56.2969 25.589H43.7031C42.9493 25.589 42.2398 25.883 41.7063 26.4166M58.2231 30.3398L41.7063 26.4166M27.5977 43.753H27.4977V43.853V44.932C27.4977 45.3783 27.1358 45.7402 26.6895 45.7402C26.2431 45.7402 25.8813 45.3783 25.8813 44.932V20.1187C25.8813 19.0054 26.7869 18.0995 27.8997 18.0995H63.0192C63.4655 18.0995 63.8274 18.4614 63.8274 18.9077C63.8274 19.3541 63.4655 19.7159 63.0192 19.7159H27.8997C27.6777 19.7159 27.4977 19.8968 27.4977 20.1187V42.0366V42.1366H27.5977H72.4023H72.5023V42.0366V20.1187C72.5023 19.8968 72.3223 19.7159 72.1003 19.7159H67.2916C66.8452 19.7159 66.4834 19.3541 66.4834 18.9077C66.4834 18.4614 66.8452 18.0995 67.2916 18.0995H72.1003C73.2131 18.0995 74.1188 19.0054 74.1188 20.1187V77.8804C74.1188 78.9936 73.2131 79.8995 72.1003 79.8995H67.2046C66.7583 79.8995 66.3964 79.5377 66.3964 79.0913C66.3964 78.645 66.7583 78.2831 67.2046 78.2831H72.1003C72.3223 78.2831 72.5023 78.1022 72.5023 77.8804V43.853V43.753H72.4023H27.5977ZM27.8997 78.2832H62.957C63.4034 78.2832 63.7652 78.645 63.7652 79.0914C63.7652 79.5377 63.4034 79.8996 62.957 79.8996H27.8997C26.7869 79.8996 25.8813 78.9937 25.8813 77.8804V49.2045C25.8813 48.7581 26.2431 48.3963 26.6895 48.3963C27.1358 48.3963 27.4977 48.7581 27.4977 49.2045V77.8804C27.4977 78.1023 27.6777 78.2832 27.8997 78.2832ZM40.5633 25.2736C41.4024 24.4345 42.5172 23.9726 43.7031 23.9726H56.2969C58.7456 23.9726 60.7379 25.9648 60.7379 28.4136C60.7379 29.5994 60.2759 30.7142 59.4367 31.5534C58.5975 32.3926 57.4827 32.8546 56.2969 32.8546H43.7031C41.2544 32.8546 39.2621 30.8623 39.2621 28.4136C39.2621 27.2276 39.7241 26.1128 40.5633 25.2736Z" fill="black" stroke="white" stroke-width="0.2"/>
<path d="M33.9998 52.093H34.9411V54.4967H37.4913V52.093H38.4327V57.8841H37.4913V55.4433H34.9411V57.8841H33.9998V52.093Z" fill="black"/>
<path d="M39.6567 54.9879C39.6567 53.3545 40.812 51.9995 42.4551 51.9995C44.0982 51.9995 45.2364 53.3452 45.2364 54.9879C45.2364 56.612 44.0811 57.9762 42.438 57.9762C40.7949 57.9762 39.6567 56.6305 39.6567 54.9879ZM44.2522 54.9879C44.2522 53.8649 43.4992 52.9276 42.438 52.9276C41.3768 52.9276 40.6409 53.8464 40.6409 54.9879C40.6409 56.1108 41.394 57.0482 42.4551 57.0482C43.5163 57.0389 44.2522 56.1201 44.2522 54.9879Z" fill="black"/>
<path d="M45.7673 52.0928H46.7771L48.0523 56.3804L49.3616 52.0742H50.1575L51.4668 56.3804L52.7419 52.0928H53.7261L51.869 57.921H51.0646L49.7553 53.7633L48.4459 57.921H47.6415L45.7673 52.0928Z" fill="black"/>
<path d="M35.6942 64.0536H33.9998V63.1069H38.33V64.0536H36.6355V68.898H35.6942V64.0536Z" fill="black"/>
<path d="M38.8948 66.0113C38.8948 64.3779 40.0501 63.0229 41.6931 63.0229C43.3362 63.0229 44.4743 64.3686 44.4743 66.0113C44.4743 67.6354 43.3191 68.9996 41.676 68.9996C40.0415 68.9996 38.8948 67.6539 38.8948 66.0113ZM43.4902 66.0113C43.4902 64.8883 42.7371 63.951 41.676 63.951C40.6149 63.951 39.8789 64.8698 39.8789 66.0113C39.8789 67.1342 40.632 68.0716 41.6931 68.0716C42.7543 68.0623 43.4902 67.1435 43.4902 66.0113Z" fill="black"/>
<path d="M48.2056 63.1162H52.1592V64.0257H49.1384V65.5292H51.8169V66.4387H49.1384V67.9885H52.1934V68.898H48.2056V63.1162Z" fill="black"/>
<path d="M55.377 63.0693H56.2499L58.5947 68.8975H57.602L57.0629 67.4962H54.5384L53.9907 68.8975H53.0322L55.377 63.0693ZM56.7206 66.6052L55.7963 64.2944L54.8807 66.6052H56.7206Z" fill="black"/>
<path d="M60.1605 64.0533H58.4746V63.1067H62.8049V64.0533H61.1104V68.8978H60.1691V64.0533H60.1605Z" fill="black"/>
</g>
<defs>
<clipPath id="clip0">
<rect width="62" height="62" fill="white" transform="translate(19 17.9995)"/>
</clipPath>
</defs>
</svg>
