<svg width="100" height="100" viewBox="0 0 100 100" fill="none" xmlns="http://www.w3.org/2000/svg">
<g clip-path="url(#clip0)">
<path d="M41.0469 23.9995C39.7007 23.9995 38.3688 24.4466 37.1956 25.2923C36.8346 25.5525 36.753 26.056 37.0132 26.417C37.2735 26.7781 37.7771 26.8596 38.1379 26.5994C39.0479 25.9434 40.0266 25.6108 41.0469 25.6108C44.6304 25.6108 47.5459 29.767 47.5459 34.8758C47.5459 39.9845 44.6304 44.1407 41.0469 44.1407C37.4634 44.1407 34.5479 39.9845 34.5479 34.8758C34.5479 32.699 35.0936 30.5811 36.0844 28.9125C36.3115 28.5298 36.1855 28.0356 35.803 27.8084C35.4204 27.5812 34.9262 27.7072 34.6989 28.0898C33.5624 30.0037 32.9365 32.4138 32.9365 34.8758C32.9365 37.7343 33.7509 40.4312 35.2296 42.4697C35.9613 43.4785 36.8139 44.2708 37.7456 44.8243L36.8081 74.6253C36.7717 75.7828 37.1955 76.8783 38.0014 77.7098C38.8072 78.5414 39.8889 78.9995 41.0469 78.9995C42.2049 78.9995 43.2865 78.5415 44.0924 77.7099C44.8983 76.8784 45.3221 75.7829 45.2856 74.6254L45.1546 70.4628C45.1406 70.018 44.7724 69.6685 44.324 69.6829C43.8793 69.6969 43.53 70.0688 43.5441 70.5135L43.6752 74.6761C43.6977 75.3938 43.435 76.073 42.9352 76.5886C42.4355 77.1042 41.765 77.3882 41.0469 77.3882C40.3288 77.3882 39.6582 77.1042 39.1585 76.5885C38.6589 76.0729 38.396 75.3936 38.4186 74.676L39.336 45.513C39.8913 45.6705 40.4638 45.7519 41.0469 45.7519C41.63 45.7519 42.2024 45.6705 42.7578 45.513L43.436 67.0762C43.4498 67.5124 43.8075 67.8565 44.2408 67.8565C44.2493 67.8565 44.2579 67.8564 44.2665 67.8561C44.7114 67.8421 45.0606 67.4702 45.0465 67.0255L44.3482 44.8243C45.2798 44.2708 46.1324 43.4785 46.8642 42.4697C48.3429 40.4312 49.1572 37.7343 49.1572 34.8758C49.1572 32.0173 48.3429 29.3203 46.8642 27.2818C45.3289 25.1651 43.263 23.9995 41.0469 23.9995V23.9995Z" fill="black"/>
<path d="M67.2578 35.1066C67.7029 35.1066 68.0635 34.7459 68.0635 34.3009V26.4165C68.0635 25.0837 66.9792 23.9995 65.6465 23.9995C64.3138 23.9995 63.2295 25.0837 63.2295 26.4165V32.6094C63.2295 32.7574 63.1091 32.8779 62.9609 32.8779C62.8128 32.8779 62.6924 32.7574 62.6924 32.6094V26.4165C62.6924 25.0837 61.6081 23.9995 60.2754 23.9995C58.9427 23.9995 57.8584 25.0837 57.8584 26.4165V32.6094C57.8584 32.7574 57.738 32.8779 57.5898 32.8779C57.4417 32.8779 57.3213 32.7574 57.3213 32.6094V26.4165C57.3213 25.0837 56.237 23.9995 54.9043 23.9995C53.5716 23.9995 52.4873 25.0837 52.4873 26.4165V39.5117C52.4873 42.3066 54.3836 44.6655 56.9568 45.3732L56.0366 74.6253C56.0002 75.7828 56.424 76.8783 57.2299 77.7098C58.0358 78.5414 59.1174 78.9995 60.2754 78.9995C61.4334 78.9995 62.515 78.5415 63.3209 77.7099C64.1268 76.8784 64.5506 75.7829 64.5142 74.6254L63.594 45.3733C66.1672 44.6657 68.0635 42.3067 68.0635 39.5118V38.0636C68.0635 37.6187 67.7029 37.2579 67.2578 37.2579C66.8128 37.2579 66.4521 37.6187 66.4521 38.0636V39.5118C66.4521 41.9756 64.4477 43.9801 61.9838 43.9801H58.5668C56.103 43.9801 54.0985 41.9756 54.0985 39.5118V26.4165C54.0985 25.9722 54.4599 25.6108 54.9042 25.6108C55.3485 25.6108 55.7099 25.9722 55.7099 26.4165V32.6094C55.7099 33.6459 56.5532 34.4893 57.5897 34.4893C58.6262 34.4893 59.4696 33.6459 59.4696 32.6094V26.4165C59.4696 25.9722 59.831 25.6108 60.2753 25.6108C60.7196 25.6108 61.0809 25.9722 61.0809 26.4165V32.6094C61.0809 33.6459 61.9243 34.4893 62.9608 34.4893C63.9973 34.4893 64.8407 33.6459 64.8407 32.6094V26.4165C64.8407 25.9722 65.2021 25.6108 65.6464 25.6108C66.0907 25.6108 66.452 25.9722 66.452 26.4165V34.3009C66.4521 34.746 66.8128 35.1066 67.2578 35.1066V35.1066ZM62.9037 74.676C62.9262 75.3937 62.6635 76.0729 62.1638 76.5885C61.664 77.1042 60.9935 77.3882 60.2754 77.3882C59.5573 77.3882 58.8867 77.1042 58.387 76.5885C57.8874 76.0729 57.6245 75.3936 57.6471 74.676L58.562 45.5912C58.5636 45.5912 58.5652 45.5913 58.567 45.5913H61.9839C61.9855 45.5913 61.9873 45.5912 61.9889 45.5912L62.9037 74.676Z" fill="black"/>
</g>
<defs>
<clipPath id="clip0">
<rect width="55" height="55" fill="white" transform="translate(23 23.9995)"/>
</clipPath>
</defs>
</svg>
