<svg width="100" height="100" viewBox="0 0 100 100" fill="none" xmlns="http://www.w3.org/2000/svg">
<g clip-path="url(#clip0)">
<path d="M68.9805 72.8876C71.2813 58.6963 71.2813 44.303 68.9805 30.1114C68.8171 29.0001 68.1371 28.1133 67.2718 27.5352C67.7461 27.0238 68.0367 26.3399 68.0367 25.5891V24.7251C68.0367 23.7736 67.2626 22.9995 66.3109 22.9995H62.4139C61.9526 22.9995 61.5788 23.3732 61.5788 23.8345C61.5788 24.2957 61.9526 24.6694 62.4139 24.6694H66.3109C66.3416 24.6694 66.3666 24.6945 66.3666 24.7251V25.5891C66.3666 26.2484 65.8302 26.7847 65.1708 26.7847H35.8294C35.17 26.7847 34.6336 26.2484 34.6336 25.5891V24.7251C34.6336 24.6945 34.6585 24.6694 34.6893 24.6694H58.5424C59.0037 24.6694 59.3775 24.2957 59.3775 23.8345C59.3775 23.3732 59.0037 22.9995 58.5426 22.9995H34.6894C33.7378 22.9995 32.9636 23.7736 32.9636 24.7251V25.5891C32.9636 26.3345 33.2499 27.0141 33.718 27.5243C32.8953 28.1172 32.2623 29.019 32.0303 30.0559C32.0266 30.0721 32.0235 30.0882 32.021 30.1047C31.7501 31.7746 31.5078 33.47 31.3009 35.1439C31.2443 35.6014 31.5694 36.0183 32.0272 36.0749C32.4859 36.1319 32.9019 35.8064 32.9585 35.3487C33.1617 33.7046 33.3995 32.0391 33.6653 30.3985C33.8893 29.4461 34.83 28.4546 35.9011 28.4546C35.9161 28.4546 35.9312 28.4548 35.9462 28.4551C35.9534 28.4554 35.9606 28.4555 35.9679 28.4555H65.0098C66.0086 28.5135 67.1735 29.2872 67.3286 30.3579C67.3292 30.3625 67.3299 30.3672 67.3307 30.3719C69.6045 44.3914 69.6045 58.6081 67.3307 72.6273C67.3299 72.6319 67.3292 72.6366 67.3286 72.6413C67.1735 73.7119 66.0087 74.4855 65.0098 74.5437H35.968C35.9608 74.5437 35.9535 74.5438 35.9463 74.544C34.8595 74.5712 33.8925 73.5663 33.6652 72.6008C31.8565 61.4341 31.4879 50.0879 32.5699 38.8771C32.6142 38.4181 32.278 38.0101 31.8189 37.9658C31.3594 37.9202 30.9518 38.2576 30.9075 38.7166C29.811 50.079 30.1855 61.578 32.0208 72.8944C32.0235 72.9107 32.0266 72.9271 32.0302 72.9432C32.2623 73.9802 32.8953 74.882 33.7182 75.4746C33.2499 75.9848 32.9635 76.6645 32.9635 77.41V78.274C32.9635 79.2256 33.7376 79.9996 34.6893 79.9996H50.7427C51.2039 79.9996 51.5778 79.6259 51.5778 79.1647C51.5778 78.7034 51.2039 78.3297 50.7427 78.3297H34.6894C34.6587 78.3297 34.6337 78.3047 34.6337 78.274V77.41C34.6337 76.7507 35.1701 76.2145 35.8295 76.2145H65.1708C65.8302 76.2145 66.3666 76.7507 66.3666 77.41V78.274C66.3666 78.3047 66.3416 78.3297 66.3109 78.3297H54.6369C54.1757 78.3297 53.8019 78.7034 53.8019 79.1647C53.8019 79.6259 54.1757 79.9996 54.6369 79.9996H66.3108C67.2624 79.9996 68.0366 79.2256 68.0366 78.274V77.41C68.0366 76.6592 67.7459 75.9753 67.2717 75.4639C68.137 74.8858 68.8171 73.9989 68.9805 72.8876V72.8876Z" fill="black"/>
</g>
<defs>
<clipPath id="clip0">
<rect width="57" height="57" fill="white" transform="translate(22 22.9995)"/>
</clipPath>
</defs>
</svg>
