<svg width="100" height="100" viewBox="0 0 100 100" fill="none" xmlns="http://www.w3.org/2000/svg">
<g clip-path="url(#clip0)">
<path d="M61.7087 41.6729C61.4127 41.3517 60.9122 41.3311 60.591 41.6272C60.2696 41.9232 60.2492 42.4237 60.5452 42.745C62.1445 44.4805 63.0254 46.7362 63.0254 49.0964V68.5923C63.0254 71.2529 60.8609 73.4175 58.2002 73.4175H41.7998C39.1391 73.4175 36.9746 71.2529 36.9746 68.5923V49.0963C36.9746 46.7361 37.8555 44.4804 39.4548 42.7448C41.3241 40.7163 42.3535 38.0799 42.3535 35.3213V31.23H57.6465V35.3213C57.6465 36.8595 57.9625 38.3527 58.5856 39.7592C58.7626 40.1586 59.2297 40.339 59.6293 40.162C60.0287 39.985 60.2091 39.5178 60.0321 39.1184C59.4988 37.9149 59.2285 36.6375 59.2285 35.3213V31.1579C60.2575 30.8984 61.0215 29.9653 61.0215 28.8569C61.0215 27.5484 59.9569 26.4839 58.6484 26.4839H58.1738V21.7905C58.1738 21.3537 57.8198 20.9995 57.3828 20.9995H50.6896C50.2526 20.9995 49.8985 21.3537 49.8985 21.7905C49.8985 22.2274 50.2526 22.5815 50.6896 22.5815H56.5918V26.4839H43.4082V22.5815H46.8927C47.3296 22.5815 47.6837 22.2274 47.6837 21.7905C47.6837 21.3537 47.3296 20.9995 46.8927 20.9995H42.6172C42.1802 20.9995 41.8262 21.3537 41.8262 21.7905V26.4839H41.3516C40.0431 26.4839 38.9785 27.5484 38.9785 28.8569C38.9785 29.9654 39.7425 30.8985 40.7715 31.1579V35.3213C40.7715 37.6815 39.8906 39.9372 38.2913 41.6728C36.422 43.7013 35.3926 46.3376 35.3926 49.0963V68.5923C35.3926 72.1253 38.2668 74.9995 41.7998 74.9995H58.2002C61.7332 74.9995 64.6074 72.1253 64.6074 68.5923V49.0963C64.6074 46.3377 63.5779 43.7014 61.7087 41.6729ZM41.3516 28.0659H58.6484C59.0847 28.0659 59.4395 28.4207 59.4395 28.8569C59.4395 29.2932 59.0847 29.6479 58.6484 29.6479H41.3516C40.9153 29.6479 40.5605 29.2932 40.5605 28.8569C40.5605 28.4207 40.9153 28.0659 41.3516 28.0659V28.0659Z" fill="black"/>
</g>
<defs>
<clipPath id="clip0">
<rect width="54" height="54" fill="white" transform="translate(23 20.9995)"/>
</clipPath>
</defs>
</svg>
