<svg width="100" height="100" viewBox="0 0 100 100" fill="none" xmlns="http://www.w3.org/2000/svg">
<path d="M47.7183 84.8689L47.7185 84.8684L35.4089 81.5589C35.2737 81.5226 35.1548 81.4416 35.0715 81.329C34.9883 81.2165 34.9456 81.0791 34.9504 80.9393L34.9504 80.9389H34.9504L37.5764 17.7105L37.5764 17.7104C37.5803 17.62 37.6039 17.5315 37.6457 17.4513C37.6874 17.371 37.7462 17.3008 37.818 17.2457L37.8182 17.2455C37.8898 17.1912 37.9723 17.1531 38.06 17.1338C38.1477 17.1146 38.2385 17.1146 38.3262 17.1339C38.3262 17.134 38.3263 17.134 38.3263 17.134L44.6374 18.4839L44.6375 18.4839L44.627 18.5328C44.7491 18.5588 44.8592 18.6242 44.9405 18.7189C45.0218 18.8135 45.0698 18.9323 45.077 19.0569L47.7183 84.8689ZM47.7183 84.8689L47.7255 84.8698C47.7779 84.8761 47.8309 84.8761 47.8833 84.87L47.7183 84.8689ZM38.7846 18.4861L43.9126 19.6046L47.2166 83.4325L36.2083 80.4815L38.7846 18.4861Z" fill="#1D1D1B" stroke="black" stroke-width="0.1"/>
<path d="M47.5021 84.7462L47.5017 84.7459C47.4307 84.6914 47.3723 84.6222 47.3306 84.5431C47.2889 84.4639 47.2648 84.3767 47.26 84.2874L47.26 84.2873L43.8935 19.1336C43.8935 19.1336 43.8935 19.1336 43.8935 19.1336L43.8935 19.1335L43.9435 19.1309C43.9355 18.9835 43.9851 18.8387 44.0818 18.7272C44.1785 18.6156 44.3147 18.5459 44.4618 18.5328L47.5021 84.7462ZM47.5021 84.7462C47.6105 84.8275 47.7425 84.871 47.8779 84.8701L47.5021 84.7462ZM48.4562 83.4882L45.1579 19.6666L60.3672 18.4101L67.38 79.2672L48.4562 83.4882Z" fill="#1D1D1B" stroke="black" stroke-width="0.1"/>
<path d="M40.6238 56.5543H40.6238L41.8131 56.5609L41.8631 56.5617L41.8631 56.5615C41.8631 56.5615 41.8631 56.5614 41.8631 56.5614L42.051 45.3002L42.0511 45.3002V45.2994C42.0511 45.135 41.9858 44.9774 41.8696 44.8612C41.7534 44.745 41.5958 44.6797 41.4314 44.6797C41.2671 44.6797 41.1095 44.745 40.9933 44.8612C40.8772 44.9773 40.8119 45.1348 40.8118 45.2989C40.8118 45.2991 40.8118 45.2992 40.8118 45.2994L40.6238 56.5543Z" fill="#1D1D1B" stroke="black" stroke-width="0.1"/>
<path d="M40.8161 83.2296C40.9732 83.23 41.1245 83.1707 41.2396 83.0637C41.3546 82.9567 41.4247 82.81 41.4357 82.6533L41.4358 82.6534L41.4358 82.6507L41.8004 60.515L41.8004 60.515V60.5142C41.8004 60.3499 41.7351 60.1923 41.6189 60.0761C41.5027 59.9599 41.3451 59.8946 41.1808 59.8946C41.0164 59.8946 40.8588 59.9599 40.7426 60.0761C40.6265 60.1922 40.5613 60.3496 40.5611 60.5138C40.5611 60.5139 40.5611 60.5141 40.5611 60.5142L40.1966 82.6091H40.1966V82.61C40.1966 82.7743 40.2619 82.9319 40.3781 83.0481C40.4942 83.1643 40.6518 83.2296 40.8161 83.2296ZM40.8161 83.2296L40.8162 83.1796V83.2296C40.8162 83.2296 40.8161 83.2296 40.8161 83.2296Z" fill="#1D1D1B" stroke="black" stroke-width="0.1"/>
<path d="M44.3769 19.7208L44.3768 19.721L44.3807 19.7215C44.421 19.7272 44.4619 19.7277 44.5023 19.723L44.5427 19.7365L44.5524 19.7398L44.5626 19.7389L60.9649 18.3892C61.1281 18.3949 61.287 18.3359 61.4071 18.2251C61.528 18.1136 61.5995 17.9586 61.6061 17.7942C61.6127 17.6299 61.5537 17.4697 61.4422 17.3489C61.3313 17.2288 61.1776 17.1574 61.0145 17.15L53.806 15.9543L53.806 15.9543L53.8039 15.954C53.7549 15.9481 53.7053 15.948 53.6563 15.9538L38.1728 17.0928C38.0097 17.0831 37.8493 17.1381 37.7264 17.246C37.6027 17.3546 37.5272 17.5079 37.5165 17.6722C37.5058 17.8365 37.5608 17.9984 37.6695 18.1221C37.7772 18.2449 37.929 18.3201 38.0919 18.3318L44.3769 19.7208ZM44.5504 18.4766L42.5091 18.0382L53.6762 17.1932L55.8653 17.5429L44.5504 18.4766Z" fill="#1D1D1B" stroke="black" stroke-width="0.1"/>
</svg>
