<svg width="46" height="40" viewBox="0 0 46 40" fill="none" xmlns="http://www.w3.org/2000/svg">
<g clip-path="url(#clip0)">
<path d="M40.555 0.260985L40.5702 0.258448L40.5848 0.253615C40.8026 0.181632 41.0389 0.189507 41.2515 0.27583C41.4633 0.361874 41.6378 0.520264 41.7438 0.722798C41.8275 0.892971 43.5978 4.58687 44.694 9.61789C46.1703 16.3962 45.6695 22.3195 43.2763 26.7736C42.4977 28.2225 40.7998 30.2807 38.5548 32.2348C36.3117 34.1873 33.5383 36.0219 30.6183 37.0367L30.6162 37.0375L30.5265 37.0698L30.4986 37.0798L30.4748 37.0976C30.4059 37.1489 30.3306 37.191 30.2508 37.223L30.2508 37.223C27.3781 38.3739 24.3946 39.2258 21.3474 39.7654L21.3474 39.7654L21.3426 39.7663C21.169 39.8014 20.991 39.8099 20.8148 39.7913L20.7997 39.7897L20.7845 39.7904C20.5596 39.8009 20.3116 39.8009 20.0251 39.8009C19.5581 39.8009 19.017 39.7902 18.4143 39.7599L18.4143 39.7597H18.4043H18.4028L16.7151 39.632L16.7076 39.6314H16.7012C12.8725 39.2429 9.63025 38.2472 7.06154 36.6833L7.0419 36.67L4.84729 35.0187C4.84718 35.0186 4.84707 35.0185 4.84697 35.0184C4.84248 35.015 4.83815 35.0113 4.834 35.0075L4.83336 35.0069C3.17716 33.4736 1.94161 31.4511 1.16336 28.9893V28.9786L1.15661 28.9533L0.749392 27.426L0.748488 27.412L0.745408 27.3977C0.373164 25.6614 0.189995 23.89 0.199106 22.1143L0.199106 22.1132C0.198095 19.9402 0.41762 17.7728 0.854307 15.6441L0.856954 15.6312L0.857886 15.6181C0.874303 15.3867 0.971946 15.1685 1.13358 15.0021C1.29431 14.8366 1.50804 14.7329 1.73741 14.709C3.98218 14.576 6.23476 14.6851 8.45616 15.0346L8.4565 15.0346C11.5731 15.5195 14.2368 16.4361 16.4001 17.7587L16.625 17.8961L16.6969 17.6426L17.426 15.0719C18.6494 12.001 20.7871 9.41088 23.3674 7.35295L25.1876 6.02868C27.1036 4.75323 29.3048 3.62664 31.7671 2.67204L31.7672 2.67203C34.6065 1.57047 37.5511 0.762576 40.555 0.260985ZM40.9849 3.53294L40.8279 3.12661L40.6221 3.51047L34.4589 15.0017L34.2172 15.4524L34.7005 15.2853L43.2048 12.3449L43.3634 12.2901L43.3369 12.1244C42.7716 8.5782 41.728 5.45686 40.9849 3.53294ZM39.0129 2.71914L39.219 2.3348L38.7933 2.42936C36.6319 2.90936 33.1966 3.84723 29.7389 5.50933L29.5783 5.58652L29.6365 5.75492L32.523 14.1067L32.6723 14.5386L32.8883 14.1359L39.0129 2.71914ZM28.0511 6.65402L27.9724 6.42625L27.763 6.54555C25.6857 7.7291 23.6858 9.20285 22.0471 11.0247L21.9683 11.1124L22.0068 11.2238L26.733 24.9037L26.8822 25.3356L27.0982 24.9329L31.4773 16.7704L31.5187 16.6932L31.4901 16.6105L28.0511 6.65402ZM19.8196 14.1643L19.8194 14.1646C17.7456 18.0222 17.5076 22.5326 17.9894 26.6051C18.4714 30.6799 19.6764 34.338 20.5121 36.5082L20.6688 36.9152L20.875 36.5309L25.6873 27.5611L25.7287 27.4839L25.7001 27.4012L20.7855 13.1795L20.6515 12.7918L20.4286 13.1362C20.2128 13.4695 20.0098 13.8122 19.8196 14.1643ZM9.63552 26.224L9.57849 26.1575L9.49101 26.1544L2.61565 25.9059L2.36919 25.897L2.41137 26.14C2.6831 27.7051 3.11865 29.1211 3.7193 30.357L3.77184 30.4651L3.89196 30.4694L13.1255 30.8031L13.5822 30.8196L13.2844 30.473L9.63552 26.224ZM4.22777 16.5423L3.77844 16.5315L4.07127 16.8725L8.98673 22.5961L9.31995 22.9841L9.33832 22.473L9.524 17.3082L9.53013 17.1377L9.36275 17.1048C7.6702 16.7716 5.95231 16.5834 4.22777 16.5423ZM2.6794 18.1287L2.54647 18.2429L2.32934 18.2289C2.08962 20.0869 2.02612 21.9634 2.1397 23.8333L2.1507 24.0144L2.33206 24.021L7.45921 24.2076L7.91614 24.2242L7.61818 23.8774L2.6794 18.1287ZM11.1227 25.0016L11.1199 25.0798L11.171 25.1392L14.5347 29.05L14.8677 29.4373L14.8862 28.9268L15.2315 19.3506L15.2359 19.2291L15.13 19.1693C14.024 18.5445 12.8522 18.0441 11.636 17.6773L11.3877 17.6024L11.3784 17.8616L11.1227 25.0016ZM18.824 37.9009L19.0321 37.9093V37.7011V37.6966V37.6579L19.0177 37.6219C18.916 37.3692 18.8085 37.0936 18.6953 36.7951L18.6829 36.7623L18.66 36.7357L15.3017 32.8257L15.2447 32.7593L15.1573 32.7562L5.41065 32.4037L4.95455 32.3872L5.25157 32.7337L5.28386 32.7714L5.40098 32.671L5.28387 32.7714C7.06004 34.8434 9.56392 36.088 12.0551 36.833C14.5477 37.5785 17.0438 37.8288 18.824 37.9009ZM41.6966 25.9251L41.6967 25.9248C42.1407 25.0949 42.5089 24.2267 42.797 23.3307L42.9195 22.9498L42.5413 23.0805L27.3724 28.3234L27.2985 28.3489L27.2615 28.4179L22.4519 37.3877L22.2467 37.7704L22.6709 37.6776C25.0282 37.1619 27.3393 36.4538 29.5809 35.5605C31.7462 34.7327 34.4157 32.9869 36.715 31.1272C37.8667 30.1957 38.9298 29.2322 39.7947 28.3354C40.657 27.4413 41.3316 26.604 41.6966 25.9251ZM28.7864 25.5753L28.5447 26.0261L29.028 25.8589L43.2583 20.9365H43.3969L43.4254 20.7702C43.7904 18.6387 43.8062 16.4546 43.6203 14.3627L43.5977 14.1078L43.3558 14.1914L33.0405 17.7551L32.9665 17.7807L32.9296 17.8496L28.7864 25.5753Z" fill="black" stroke="#F8F8F8" stroke-width="0.4"/>
</g>
<defs>
<clipPath id="clip0">
<rect width="45.7254" height="40" fill="white"/>
</clipPath>
</defs>
</svg>
