<svg width="40" height="40" viewBox="0 0 40 40" fill="none" xmlns="http://www.w3.org/2000/svg">
<g clip-path="url(#clip0)">
<path d="M34.6666 4.0146C34.6666 4.00927 34.6666 4.00527 34.6666 3.99994V1.99993C34.6706 0.899432 33.7818 0.00401331 32.6812 1.33049e-05C32.1105 -0.00207003 31.5664 0.240597 31.1866 0.666598H11.3332C9.74981 0.668598 8.38547 1.78235 8.06655 3.33327H7.33322C5.49321 3.33544 4.00204 4.82661 3.99988 6.66661V7.99995C3.99988 8.36811 4.29838 8.66661 4.66655 8.66661H6.72055L9.33322 39.39C9.36272 39.7359 9.65272 40.0013 9.99989 40H29.9999C32.9454 39.9948 35.329 37.6028 35.3238 34.6572C35.3196 32.2973 33.765 30.2207 31.5019 29.5519L33.2793 8.66653H35.3333C35.7014 8.66653 35.9999 8.36803 35.9999 7.99986V6.66653C35.9976 5.62202 35.5036 4.63952 34.6666 4.0146ZM31.9999 1.99993C31.9999 1.63177 32.2984 1.33327 32.6666 1.33327C33.0348 1.33327 33.3333 1.63177 33.3333 1.99993V3.33327H31.9999V1.99993ZM11.3332 1.99993H30.6666V3.33327H9.44722C9.73081 2.53477 10.486 2.00093 11.3332 1.99993ZM33.9999 34.6667C33.9999 36.8758 32.2091 38.6667 29.9999 38.6667C27.7908 38.6667 25.9999 36.8758 25.9999 34.6667C25.9999 32.4575 27.7908 30.6667 29.9999 30.6667C30.2266 30.6679 30.4528 30.6887 30.6759 30.7287C32.5946 31.0577 33.9978 32.7201 33.9999 34.6667ZM30.1819 29.3367C30.1526 29.3367 30.1239 29.3367 30.0946 29.3367C30.0653 29.3367 30.0319 29.3333 29.9999 29.3333C29.9433 29.3333 29.8886 29.34 29.8319 29.342C29.7213 29.342 29.6106 29.3487 29.5019 29.3587C29.4553 29.3627 29.4099 29.3693 29.3639 29.3747C29.2173 29.392 29.0719 29.4127 28.9286 29.4413H28.9213C26.2299 29.9922 24.4002 32.5011 24.6979 35.232C24.7046 35.2947 24.7173 35.3547 24.7259 35.416C24.7433 35.5393 24.7606 35.662 24.7866 35.7827C24.8019 35.8547 24.8233 35.924 24.8413 35.9947C24.8686 36.1013 24.8959 36.2087 24.9299 36.3127C24.9539 36.3867 24.9826 36.4573 25.0099 36.53C25.0466 36.6273 25.0833 36.7253 25.1259 36.82C25.1579 36.892 25.1926 36.962 25.2279 37.032C25.2733 37.1233 25.3199 37.2133 25.3699 37.2987C25.4093 37.3653 25.4513 37.432 25.4939 37.4987C25.5473 37.5833 25.6019 37.666 25.6599 37.7467C25.7059 37.8133 25.7539 37.8753 25.8033 37.938C25.8639 38.0167 25.9273 38.092 25.9926 38.1667C26.0453 38.2267 26.0986 38.286 26.1533 38.3433C26.2199 38.4153 26.2939 38.484 26.3673 38.552C26.4039 38.5867 26.4379 38.6253 26.4759 38.6587H10.6092L8.05922 8.66661H31.9406L30.1819 29.3367ZM34.6666 7.33328H5.33321V6.66661C5.33321 5.56202 6.22863 4.66661 7.33322 4.66661H32.6666C33.7712 4.66661 34.6666 5.56202 34.6666 6.66661V7.33328Z" fill="black"/>
<path d="M24.8229 16.6901C24.4687 16.6041 24.1112 16.8184 24.0201 17.1712L23.6627 18.5999L20.5654 13.6466C20.3454 13.3336 19.9133 13.2582 19.6004 13.4782C19.535 13.5242 19.4781 13.5812 19.4321 13.6466L18.0987 15.7799C17.9042 16.0926 18.0001 16.5037 18.3126 16.6982C18.3129 16.6983 18.3131 16.6985 18.3134 16.6986C18.6256 16.8937 19.0369 16.7988 19.2321 16.4866L20.0001 15.2579L22.5474 19.3333H21.3334C20.9652 19.3333 20.6667 19.6318 20.6667 19.9999C20.6667 20.3681 20.9652 20.6666 21.3334 20.6666H24.0001C24.3058 20.6666 24.5724 20.4585 24.6467 20.1619L25.3134 17.4952C25.4003 17.1374 25.1807 16.777 24.8229 16.6901Z" fill="black"/>
<path d="M18.6473 21.1713L17.9806 18.5046C17.9063 18.2078 17.6393 17.9996 17.3333 17.9999H14.6666C14.2984 17.9999 13.9999 18.2984 13.9999 18.6666C13.9999 19.0348 14.2984 19.3333 14.6666 19.3333H15.8806L12.7679 24.3133C12.5728 24.6255 12.6677 25.0368 12.9799 25.232C13.0859 25.2982 13.2084 25.3333 13.3333 25.3333H16C16.3681 25.3333 16.6666 25.0348 16.6666 24.6666C16.6666 24.2985 16.3681 24 16 24H14.5333L16.9926 20.0666L17.3506 21.4973C17.426 21.7941 17.6938 22.0014 18 22C18.0548 22.0002 18.1095 21.9935 18.1626 21.98C18.5198 21.8905 18.7368 21.5284 18.6473 21.1713Z" fill="black"/>
<path d="M27.2212 24.2966L25.8879 22.2966C25.6836 21.9903 25.2697 21.9075 24.9634 22.1119C24.9633 22.1119 24.9633 22.112 24.9632 22.112C24.6569 22.3162 24.5742 22.7301 24.7785 23.0365C24.7785 23.0365 24.7785 23.0365 24.7785 23.0366L25.4205 24H20.2759L21.1379 23.138C21.3937 22.8731 21.3864 22.4511 21.1215 22.1953C20.8632 21.9457 20.4535 21.9457 20.1952 22.1953L18.1952 24.1953C17.9349 24.4556 17.9349 24.8776 18.1952 25.138L20.1952 27.138C20.46 27.3938 20.882 27.3865 21.1379 27.1216C21.3874 26.8633 21.3874 26.4536 21.1379 26.1953L20.2759 25.3333H26.6666C27.0347 25.3334 27.3333 25.0349 27.3333 24.6667C27.3334 24.535 27.2944 24.4062 27.2212 24.2966Z" fill="black"/>
</g>
<defs>
<clipPath id="clip0">
<rect width="40" height="40" fill="white"/>
</clipPath>
</defs>
</svg>
