<svg width="40" height="40" viewBox="0 0 40 40" fill="none" xmlns="http://www.w3.org/2000/svg">
<mask id="path-1-inside-1" fill="white">
<path fill-rule="evenodd" clip-rule="evenodd" d="M0.666641 8.33337H26C26.3687 8.33337 26.6666 8.63205 26.6666 9.00001V13H33.3331C33.5598 13 33.7712 13.1153 33.8938 13.306L39.8938 22.6394C39.9632 22.7466 39.9999 22.8727 39.9998 23V30.3334C39.9998 30.702 39.7018 31 39.3331 31H35.9445C35.6263 32.8897 33.9789 34.3333 32 34.3333C30.021 34.3333 28.3737 32.8897 28.0555 30.9999H26.0107C26.0071 31 26.0036 31 26 31H13.2777C12.9595 32.8897 11.3121 34.3333 9.3332 34.3333C7.35428 34.3333 5.70692 32.8897 5.38873 31H0.666641C0.298672 31 0 30.702 0 30.3334V9.00001C0 8.63205 0.298672 8.33337 0.666641 8.33337ZM5.38873 29.6667C5.70693 27.777 7.35429 26.3333 9.3332 26.3333C11.3121 26.3333 12.9595 27.777 13.2777 29.6667H25.3332V13.6666C25.3332 13.6618 25.3333 13.6569 25.3334 13.6521V9.66666H1.33336V29.6667H5.38873ZM26.6666 29.6666H28.0555C28.3738 27.7769 30.0211 26.3333 32 26.3333C33.9789 26.3333 35.6263 27.777 35.9445 29.6667H38.6665V23.196L32.9691 14.3334H26.6666V29.6666ZM6.66656 30.3333C6.66656 31.804 7.8625 33 9.3332 33C10.8038 33 11.9998 31.804 11.9998 30.3333C11.9998 28.8627 10.8038 27.6667 9.3332 27.6667C7.86258 27.6667 6.66656 28.8626 6.66656 30.3333ZM29.3334 30.3333C29.3334 31.804 30.5293 33 32 33C33.4707 33 34.6666 31.804 34.6666 30.3333C34.6666 28.8627 33.4707 27.6667 32 27.6667C30.5294 27.6667 29.3334 28.8626 29.3334 30.3333Z"/>
</mask>
<path fill-rule="evenodd" clip-rule="evenodd" d="M0.666641 8.33337H26C26.3687 8.33337 26.6666 8.63205 26.6666 9.00001V13H33.3331C33.5598 13 33.7712 13.1153 33.8938 13.306L39.8938 22.6394C39.9632 22.7466 39.9999 22.8727 39.9998 23V30.3334C39.9998 30.702 39.7018 31 39.3331 31H35.9445C35.6263 32.8897 33.9789 34.3333 32 34.3333C30.021 34.3333 28.3737 32.8897 28.0555 30.9999H26.0107C26.0071 31 26.0036 31 26 31H13.2777C12.9595 32.8897 11.3121 34.3333 9.3332 34.3333C7.35428 34.3333 5.70692 32.8897 5.38873 31H0.666641C0.298672 31 0 30.702 0 30.3334V9.00001C0 8.63205 0.298672 8.33337 0.666641 8.33337ZM5.38873 29.6667C5.70693 27.777 7.35429 26.3333 9.3332 26.3333C11.3121 26.3333 12.9595 27.777 13.2777 29.6667H25.3332V13.6666C25.3332 13.6618 25.3333 13.6569 25.3334 13.6521V9.66666H1.33336V29.6667H5.38873ZM26.6666 29.6666H28.0555C28.3738 27.7769 30.0211 26.3333 32 26.3333C33.9789 26.3333 35.6263 27.777 35.9445 29.6667H38.6665V23.196L32.9691 14.3334H26.6666V29.6666ZM6.66656 30.3333C6.66656 31.804 7.8625 33 9.3332 33C10.8038 33 11.9998 31.804 11.9998 30.3333C11.9998 28.8627 10.8038 27.6667 9.3332 27.6667C7.86258 27.6667 6.66656 28.8626 6.66656 30.3333ZM29.3334 30.3333C29.3334 31.804 30.5293 33 32 33C33.4707 33 34.6666 31.804 34.6666 30.3333C34.6666 28.8627 33.4707 27.6667 32 27.6667C30.5294 27.6667 29.3334 28.8626 29.3334 30.3333Z" fill="black"/>
<path d="M26.6666 13H26.5666V13.1H26.6666V13ZM33.8938 13.306L33.9779 13.2519L33.9779 13.2519L33.8938 13.306ZM39.8938 22.6394L39.8097 22.6935L39.8099 22.6937L39.8938 22.6394ZM39.9998 23L39.8998 22.9999V23H39.9998ZM35.9445 31V30.9H35.8599L35.8459 30.9834L35.9445 31ZM28.0555 30.9999L28.1541 30.9833L28.1401 30.8999H28.0555V30.9999ZM26.0107 30.9999V30.8999L26.0092 30.8999L26.0107 30.9999ZM13.2777 31V30.9H13.1931L13.1791 30.9834L13.2777 31ZM5.38873 31L5.48734 30.9834L5.4733 30.9H5.38873V31ZM5.38873 29.6667V29.7667H5.4733L5.48734 29.6833L5.38873 29.6667ZM13.2777 29.6667L13.1791 29.6833L13.1931 29.7667H13.2777V29.6667ZM25.3332 29.6667V29.7667H25.4332V29.6667H25.3332ZM25.3334 13.6521L25.4334 13.6542V13.6521H25.3334ZM25.3334 9.66666H25.4334V9.56666H25.3334V9.66666ZM1.33336 9.66666V9.56666H1.23336V9.66666H1.33336ZM1.33336 29.6667H1.23336V29.7667H1.33336V29.6667ZM28.0555 29.6666V29.7666H28.1401L28.1542 29.6832L28.0555 29.6666ZM26.6666 29.6666H26.5666V29.7666H26.6666V29.6666ZM35.9445 29.6667L35.8459 29.6833L35.8599 29.7667H35.9445V29.6667ZM38.6665 29.6667V29.7667H38.7665V29.6667H38.6665ZM38.6665 23.196H38.7665V23.1667L38.7506 23.1419L38.6665 23.196ZM32.9691 14.3334L33.0533 14.2793L33.0237 14.2334H32.9691V14.3334ZM26.6666 14.3334V14.2334H26.5666V14.3334H26.6666ZM26 8.23337H0.666641V8.43337H26V8.23337ZM26.7666 9.00001C26.7666 8.57689 26.424 8.23337 26 8.23337V8.43337C26.3134 8.43337 26.5666 8.68721 26.5666 9.00001H26.7666ZM26.7666 13V9.00001H26.5666V13H26.7666ZM26.6666 13.1H33.3331V12.9H26.6666V13.1ZM33.3331 13.1C33.5258 13.1 33.7055 13.198 33.8097 13.3601L33.9779 13.2519C33.8369 13.0326 33.5939 12.9 33.3331 12.9V13.1ZM33.8097 13.3601L39.8097 22.6935L39.978 22.5853L33.9779 13.2519L33.8097 13.3601ZM39.8099 22.6937C39.8686 22.7846 39.8998 22.8916 39.8998 22.9999L40.0998 23.0001C40.0999 22.8537 40.0578 22.7087 39.9778 22.5851L39.8099 22.6937ZM39.8998 23V30.3334H40.0998V23H39.8998ZM39.8998 30.3334C39.8998 30.6468 39.6466 30.9 39.3331 30.9V31.1C39.757 31.1 40.0998 30.7573 40.0998 30.3334H39.8998ZM39.3331 30.9H35.9445V31.1H39.3331V30.9ZM35.8459 30.9834C35.5356 32.8258 33.9292 34.2333 32 34.2333V34.4333C34.0286 34.4333 35.7169 32.9536 36.0431 31.0166L35.8459 30.9834ZM32 34.2333C30.0707 34.2333 28.4643 32.8258 28.1541 30.9833L27.9569 31.0165C28.283 32.9535 29.9714 34.4333 32 34.4333V34.2333ZM28.0555 30.8999H26.0107V31.0999H28.0555V30.8999ZM26 31.1C26.0041 31.1 26.0082 31.1 26.0123 31.0999L26.0092 30.8999C26.0061 30.9 26.003 30.9 26 30.9V31.1ZM13.2777 31.1H26V30.9H13.2777V31.1ZM9.3332 34.4333C11.3618 34.4333 13.0501 32.9536 13.3763 31.0166L13.1791 30.9834C12.8688 32.8258 11.2624 34.2333 9.3332 34.2333V34.4333ZM5.29012 31.0166C5.61627 32.9536 7.30459 34.4333 9.3332 34.4333V34.2333C7.40397 34.2333 5.79757 32.8258 5.48734 30.9834L5.29012 31.0166ZM0.666641 31.1H5.38873V30.9H0.666641V31.1ZM-0.1 30.3334C-0.1 30.7573 0.243512 31.1 0.666641 31.1V30.9C0.353831 30.9 0.1 30.6467 0.1 30.3334H-0.1ZM-0.1 9.00001V30.3334H0.1V9.00001H-0.1ZM0.666641 8.23337C0.243443 8.23337 -0.1 8.57682 -0.1 9.00001H0.1C0.1 8.68727 0.3539 8.43337 0.666641 8.43337V8.23337ZM9.3332 26.2333C7.3046 26.2333 5.61628 27.7131 5.29012 29.6501L5.48734 29.6833C5.79758 27.8409 7.40397 26.4333 9.3332 26.4333V26.2333ZM13.3763 29.6501C13.0501 27.7131 11.3617 26.2333 9.3332 26.2333V26.4333C11.2624 26.4333 12.8688 27.8409 13.1791 29.6833L13.3763 29.6501ZM25.3332 29.5667H13.2777V29.7667H25.3332V29.5667ZM25.4332 29.6667V13.6666H25.2332V29.6667H25.4332ZM25.4332 13.6666C25.4332 13.6625 25.4332 13.6583 25.4333 13.6542L25.2334 13.6499C25.2333 13.6555 25.2332 13.6611 25.2332 13.6666H25.4332ZM25.2334 9.66666V13.6521H25.4334V9.66666H25.2334ZM1.33336 9.76666H25.3334V9.56666H1.33336V9.76666ZM1.43336 29.6667V9.66666H1.23336V29.6667H1.43336ZM5.38873 29.5667H1.33336V29.7667H5.38873V29.5667ZM28.0555 29.5666H26.6666V29.7666H28.0555V29.5666ZM32 26.2333C29.9714 26.2333 28.2831 27.713 27.9569 29.65L28.1542 29.6832C28.4644 27.8408 30.0708 26.4333 32 26.4333V26.2333ZM36.0431 29.6501C35.717 27.7131 34.0286 26.2333 32 26.2333V26.4333C33.9293 26.4333 35.5357 27.8409 35.8459 29.6833L36.0431 29.6501ZM38.6665 29.5667H35.9445V29.7667H38.6665V29.5667ZM38.5665 23.196V29.6667H38.7665V23.196H38.5665ZM32.885 14.3874L38.5824 23.2501L38.7506 23.1419L33.0533 14.2793L32.885 14.3874ZM26.6666 14.4334H32.9691V14.2334H26.6666V14.4334ZM26.7666 29.6666V14.3334H26.5666V29.6666H26.7666ZM9.3332 32.9C7.91773 32.9 6.76656 31.7487 6.76656 30.3333H6.56656C6.56656 31.8592 7.80727 33.1 9.3332 33.1V32.9ZM11.8998 30.3333C11.8998 31.7487 10.7486 32.9 9.3332 32.9V33.1C10.8591 33.1 12.0998 31.8592 12.0998 30.3333H11.8998ZM9.3332 27.7667C10.7486 27.7667 11.8998 28.9179 11.8998 30.3333H12.0998C12.0998 28.8075 10.8591 27.5667 9.3332 27.5667V27.7667ZM6.76656 30.3333C6.76656 28.9179 7.91781 27.7667 9.3332 27.7667V27.5667C7.80735 27.5667 6.56656 28.8074 6.56656 30.3333H6.76656ZM32 32.9C30.5845 32.9 29.4334 31.7487 29.4334 30.3333H29.2334C29.2334 31.8592 30.4741 33.1 32 33.1V32.9ZM34.5666 30.3333C34.5666 31.7487 33.4155 32.9 32 32.9V33.1C33.5259 33.1 34.7666 31.8592 34.7666 30.3333H34.5666ZM32 27.7667C33.4155 27.7667 34.5666 28.9179 34.5666 30.3333H34.7666C34.7666 28.8075 33.5259 27.5667 32 27.5667V27.7667ZM29.4334 30.3333C29.4334 28.9179 30.5846 27.7667 32 27.7667V27.5667C30.4742 27.5667 29.2334 28.8074 29.2334 30.3333H29.4334Z" fill="#F8F8F8" mask="url(#path-1-inside-1)"/>
<path d="M16.925 16.2703C16.6416 16.2015 16.3556 16.373 16.2827 16.6552L15.9968 17.7982L13.519 13.8355C13.343 13.5851 12.9973 13.5248 12.747 13.7008C12.6946 13.7376 12.6491 13.7832 12.6123 13.8355L11.5456 15.5422C11.39 15.7923 11.4667 16.1212 11.7168 16.2768C11.717 16.2769 11.7172 16.277 11.7174 16.2771C11.9672 16.4332 12.2962 16.3573 12.4523 16.1075L13.0667 15.1246L15.1046 18.3848H14.1334C13.8388 18.3848 13.6 18.6236 13.6 18.9182C13.6 19.2127 13.8388 19.4515 14.1334 19.4515H16.2667C16.5113 19.4515 16.7246 19.285 16.784 19.0478L17.3174 16.9144C17.3869 16.6282 17.2112 16.3398 16.925 16.2703Z" fill="black"/>
<path d="M11.9846 19.8553L11.4512 17.722C11.3918 17.4845 11.1782 17.318 10.9334 17.3182H8.80004C8.50551 17.3182 8.26671 17.557 8.26671 17.8516C8.26671 18.1461 8.50551 18.3849 8.80004 18.3849H9.77124L7.2811 22.3689C7.12497 22.6187 7.2009 22.9477 7.45071 23.1039C7.53544 23.1569 7.63344 23.1849 7.73337 23.1849H9.86671C10.1612 23.1849 10.4 22.9461 10.4 22.6516C10.4 22.3571 10.1612 22.1183 9.86671 22.1183H8.69337L10.6608 18.9716L10.9472 20.1161C11.0075 20.3536 11.2218 20.5194 11.4667 20.5182C11.5106 20.5184 11.5543 20.513 11.5968 20.5022C11.8826 20.4306 12.0562 20.141 11.9846 19.8553Z" fill="black"/>
<path d="M18.8438 22.3556L17.7771 20.7556C17.6137 20.5105 17.2826 20.4443 17.0375 20.6078C17.0374 20.6078 17.0374 20.6078 17.0374 20.6078C16.7923 20.7712 16.7262 21.1024 16.8896 21.3474C16.8896 21.3475 16.8896 21.3475 16.8896 21.3476L17.4032 22.1182H13.2875L13.9771 21.4286C14.1818 21.2168 14.1759 20.8792 13.964 20.6745C13.7574 20.4748 13.4296 20.4748 13.223 20.6745L11.6229 22.2745C11.4147 22.4828 11.4147 22.8204 11.6229 23.0286L13.223 24.6286C13.4348 24.8333 13.7724 24.8274 13.9771 24.6156C14.1768 24.4089 14.1768 24.0812 13.9771 23.8745L13.2875 23.1849H18.4C18.6946 23.185 18.9334 22.9462 18.9334 22.6516C18.9335 22.5462 18.9023 22.4432 18.8438 22.3556Z" fill="black"/>
</svg>
